<svg width="16" height="16" xmlns="http://www.w3.org/2000/svg" fill-rule="evenodd" clip-rule="evenodd" stroke-linejoin="round" stroke-miterlimit="1.414"><circle cx="32" cy="32" r="24" transform="matrix(.22917 0 0 .22917 .667 .667)"/><path d="M8.25 15.759a.242.242 0 0 1-.241.241h-.001a.258.258 0 0 1-.258-.258v-1.484c0-.142.115-.258.258-.258h.001a.242.242 0 0 1 .241.241v1.518zM7.75.249c0-.137.111-.249.249-.249h.002c.137 0 .249.112.249.249v1.51A.242.242 0 0 1 8.009 2h-.001a.258.258 0 0 1-.258-.258V.249zM4.794 15.326a.25.25 0 0 1-.128-.329l.602-1.377a.248.248 0 0 1 .327-.128h.001a.251.251 0 0 1 .13.331L5.122 15.2a.249.249 0 0 1-.328.128zM10.876.801a.249.249 0 0 1 .329-.128.25.25 0 0 1 .13.33L10.73 2.38a.248.248 0 0 1-.326.128h-.001a.251.251 0 0 1-.13-.33L10.876.8zM2.706 13.647c-.1.101-.264.101-.365 0a.24.24 0 0 1 0-.341l1.073-1.074a.24.24 0 0 1 .341 0h.001c.1.102.1.265 0 .366l-1.05 1.05zM13.3 2.347a.249.249 0 0 1 .352 0h.002a.249.249 0 0 1 0 .353l-1.057 1.056a.258.258 0 0 1-.365 0 .242.242 0 0 1 0-.341L13.3 2.346zM.673 11.205a.249.249 0 0 1 .128-.328l1.376-.602a.251.251 0 0 1 .33.129.248.248 0 0 1-.127.328l-1.378.602a.25.25 0 0 1-.329-.128v-.001zm14.324-6.54a.25.25 0 0 1 .33.13.249.249 0 0 1-.128.329l-1.377.602a.25.25 0 0 1-.202-.458l1.377-.602zM15.751 7.75c.137 0 .249.112.249.249v.002a.249.249 0 0 1-.249.249h-1.493A.259.259 0 0 1 14 7.992v-.001a.242.242 0 0 1 .241-.241h1.51zM0 7.991c0-.133.108-.241.241-.241h1.518A.242.242 0 0 1 2 7.991v.001a.259.259 0 0 1-.258.258H.258A.258.258 0 0 1 0 7.992v-.001zM15.199 10.877a.249.249 0 0 1 .128.328.25.25 0 0 1-.33.13l-1.377-.604a.248.248 0 0 1-.128-.326v-.001a.251.251 0 0 1 .331-.13l1.376.603zM.673 4.793a.25.25 0 0 1 .33-.128l1.376.602a.249.249 0 0 1 .128.328v.001a.25.25 0 0 1-.33.129L.802 5.124a.249.249 0 0 1-.128-.329zM13.654 13.3a.248.248 0 0 1 0 .352l-.002.002a.248.248 0 0 1-.352 0l-1.056-1.056c-.101-.101-.101-.265 0-.366a.242.242 0 0 1 .341 0l1.069 1.068zM2.348 2.346a.249.249 0 0 1 .352 0l1.068 1.069a.24.24 0 0 1 0 .34v.001c-.101.101-.265.101-.365 0L2.346 2.7a.249.249 0 0 1 0-.352l.002-.002zM11.334 14.998a.25.25 0 0 1-.128.329h-.001a.249.249 0 0 1-.329-.128l-.602-1.377a.25.25 0 0 1 .129-.329h.001a.25.25 0 0 1 .328.128l.602 1.377zM4.795.673a.249.249 0 0 1 .328.128l.602 1.376a.25.25 0 0 1-.129.33v.001a.247.247 0 0 1-.328-.128l-.602-1.377a.25.25 0 0 1 .128-.33h.001z"/></svg>