<svg width="64" height="64" xmlns="http://www.w3.org/2000/svg" fill-rule="evenodd" clip-rule="evenodd" stroke-linecap="round" stroke-linejoin="round" stroke-miterlimit="1.5"><path d="M64 17H0v33.39c0 .958.45 1.876 1.25 2.553S3.135 54 4.267 54h55.466c1.132 0 2.217-.38 3.017-1.057.8-.677 1.25-1.595 1.25-2.553V17z" fill="none" stroke="#ff3b30" stroke-width="3.9" transform="matrix(.9375 0 0 1.10811 2 2.162)"/><path d="M64 11a3.998 3.998 0 0 0-4-4h-6a1 1 0 0 0-1 1v4A4 4 0 0 1 49 16V16a4 4 0 0 1-4-4V8a.999.999 0 0 0-1-1H20a.999.999 0 0 0-1 1v4A4 4 0 0 1 15 16V16a4 4 0 0 1-4-4V8a1 1 0 0 0-1-1H4a4 4 0 0 0-4 4v12h64V11z" fill="#ff3b30"/><path d="M20 3v13.75" fill="none" stroke="#ff3b30" stroke-width="4.57" transform="matrix(1 0 0 .72727 -5 -.182)"/><path d="M20 3v13.75" fill="none" stroke="#ff3b30" stroke-width="4.57" transform="matrix(1 0 0 .72727 29 -.182)"/></svg>