<svg width="32" height="32" xmlns="http://www.w3.org/2000/svg" fill-rule="evenodd" clip-rule="evenodd" stroke-linecap="round" stroke-linejoin="round" stroke-miterlimit="1.5"><path d="M15.343 13.829l-.033-.073a5.69 5.69 0 0 1-.127-4.192 5.615 5.615 0 0 1 1.265-2.011 408.43 408.43 0 0 1 3.605-3.605 5.635 5.635 0 0 1 4.692-1.556 5.638 5.638 0 0 1 4.232 2.916c.284.524.483 1.093.589 1.679a5.698 5.698 0 0 1-.376 3.269 5.625 5.625 0 0 1-1.138 1.691 408.43 408.43 0 0 1-3.605 3.605 5.625 5.625 0 0 1-1.691 1.138 5.698 5.698 0 0 1-4.585-.033l1.578-1.577a3.684 3.684 0 0 0 2.169-.207 3.698 3.698 0 0 0 1.099-.72c1.223-1.178 2.41-2.393 3.603-3.602a3.636 3.636 0 0 0 1.024-2.859 3.64 3.64 0 0 0-1.093-2.312 3.657 3.657 0 0 0-1.011-.699 3.7 3.7 0 0 0-1.408-.336c-.059-.002-.117-.002-.176-.002a3.639 3.639 0 0 0-2.473 1.004c-1.223 1.178-2.41 2.393-3.603 3.602a3.619 3.619 0 0 0-.817 1.298 3.67 3.67 0 0 0-.143 2.004l-1.577 1.578z" fill="#fff"/><path d="M10 22l12-12" fill="none" stroke="#fff" stroke-width="2"/><path d="M16.657 18.171a5.675 5.675 0 0 1 .033 4.585 5.625 5.625 0 0 1-1.138 1.691 408.43 408.43 0 0 1-3.605 3.605 5.625 5.625 0 0 1-1.691 1.138 5.698 5.698 0 0 1-3.269.376 5.634 5.634 0 0 1-3.139-1.724 5.655 5.655 0 0 1-1.038-1.586 5.69 5.69 0 0 1-.127-4.192 5.615 5.615 0 0 1 1.265-2.011 408.43 408.43 0 0 1 3.605-3.605 5.635 5.635 0 0 1 4.692-1.556c.519.068 1.03.209 1.511.418l.073.033-1.578 1.577a3.774 3.774 0 0 0-.619-.075c-.059-.002-.117-.002-.176-.002a3.639 3.639 0 0 0-2.473 1.004c-1.223 1.178-2.41 2.393-3.603 3.602a3.619 3.619 0 0 0-.817 1.298 3.67 3.67 0 0 0 .082 2.712c.163.376.391.723.67 1.023.283.306.616.564.985.758a3.684 3.684 0 0 0 3.118.133 3.698 3.698 0 0 0 1.099-.72c1.223-1.178 2.41-2.393 3.603-3.602a3.636 3.636 0 0 0 1.024-2.859 3.664 3.664 0 0 0-.064-.443l1.577-1.578z" fill="#fff"/></svg>