<?xml version="1.0" encoding="UTF-8" standalone="no"?><!DOCTYPE svg PUBLIC "-//W3C//DTD SVG 1.1//EN" "http://www.w3.org/Graphics/SVG/1.1/DTD/svg11.dtd"><svg width="72px" height="72px" version="1.1" xmlns="http://www.w3.org/2000/svg" xmlns:xlink="http://www.w3.org/1999/xlink" xml:space="preserve" style="fill-rule:evenodd;clip-rule:evenodd;stroke-linejoin:round;stroke-miterlimit:1.41421;"><g style="filter:url(#_Effect1);"><path id="Shadow" d="M37,69.026C37,69.284 36.897,69.532 36.715,69.715C36.532,69.897 36.284,70 36.026,70C36.026,70 36.025,70 36.025,70C35.459,70 35,69.541 35,68.975C35,67.439 35,64.558 35,63.023C35,62.458 35.458,62 36.023,62C36.023,62 36.024,62 36.024,62C36.283,62 36.531,62.103 36.714,62.286C36.897,62.469 37,62.717 37,62.976C37,64.515 37,67.488 37,69.026ZM49.349,66.018C49.564,66.508 49.341,67.079 48.851,67.294C48.851,67.294 48.85,67.294 48.85,67.294C48.6,67.404 48.316,67.41 48.061,67.31C47.807,67.211 47.602,67.014 47.493,66.764C46.869,65.338 45.695,62.656 45.086,61.263C44.871,60.772 45.095,60.199 45.586,59.984C45.587,59.984 45.587,59.983 45.587,59.983C45.837,59.874 46.12,59.868 46.374,59.967C46.627,60.066 46.831,60.262 46.941,60.512C47.564,61.938 48.74,64.625 49.349,66.018ZM23.149,67.294C22.659,67.079 22.436,66.508 22.651,66.018C23.26,64.625 24.437,61.936 25.06,60.511C25.169,60.262 25.373,60.066 25.626,59.967C25.879,59.868 26.162,59.874 26.411,59.983C26.411,59.983 26.411,59.983 26.412,59.983C26.904,60.199 27.128,60.773 26.913,61.266C26.303,62.659 25.131,65.339 24.507,66.764C24.398,67.014 24.193,67.211 23.939,67.31C23.684,67.41 23.4,67.404 23.15,67.294C23.15,67.294 23.149,67.294 23.149,67.294ZM58.612,59.198C59.002,59.588 59.002,60.221 58.612,60.612C58.424,60.799 58.17,60.905 57.905,60.905C57.64,60.905 57.385,60.799 57.198,60.612C56.11,59.524 54.038,57.452 52.951,56.366C52.562,55.976 52.562,55.344 52.951,54.954C52.952,54.954 52.952,54.954 52.952,54.953C53.14,54.766 53.394,54.66 53.66,54.66C53.925,54.66 54.18,54.766 54.368,54.953C55.455,56.041 57.525,58.111 58.612,59.198ZM14.82,60.594C14.42,60.995 13.771,60.995 13.37,60.594C13.37,60.594 13.37,60.594 13.37,60.594C12.989,60.213 12.989,59.596 13.37,59.216C14.458,58.128 16.563,56.023 17.651,54.935C18.031,54.555 18.648,54.555 19.028,54.935C19.029,54.935 19.029,54.935 19.029,54.936C19.429,55.336 19.429,55.985 19.029,56.385C17.943,57.471 15.906,59.508 14.82,60.594ZM36,16C48.142,16 58,25.858 58,38C58,50.142 48.142,60 36,60C23.858,60 14,50.142 14,38C14,25.858 23.858,16 36,16ZM64.774,49.497C65.022,49.605 65.216,49.808 65.315,50.06C65.413,50.312 65.407,50.592 65.299,50.84C65.299,50.84 65.298,50.841 65.298,50.841C65.081,51.336 64.504,51.562 64.008,51.345C62.608,50.732 59.917,49.555 58.498,48.934C58.252,48.827 58.059,48.626 57.961,48.376C57.863,48.125 57.869,47.847 57.977,47.601C57.977,47.6 57.977,47.6 57.977,47.6C58.196,47.101 58.777,46.874 59.276,47.092C60.676,47.704 63.355,48.876 64.774,49.497ZM6.701,50.84C6.593,50.592 6.587,50.312 6.685,50.06C6.784,49.808 6.978,49.605 7.226,49.497C8.644,48.877 11.323,47.705 12.723,47.092C13.222,46.874 13.803,47.101 14.022,47.6C14.022,47.601 14.022,47.601 14.022,47.601C14.13,47.847 14.136,48.126 14.038,48.376C13.94,48.626 13.747,48.827 13.501,48.935C12.083,49.555 9.392,50.733 7.992,51.345C7.496,51.562 6.919,51.336 6.702,50.841C6.702,50.841 6.701,50.84 6.701,50.84ZM67,37C67.265,37 67.52,37.105 67.707,37.293C67.895,37.48 68,37.735 68,38C68,38.552 67.552,39 67,39C65.463,39 62.536,39 60.999,39C60.447,39 60,38.553 60,38.001C60,38.001 60,38 60,38C60,37.735 60.105,37.48 60.293,37.293C60.48,37.105 60.735,37 61,37C62.537,37 65.463,37 67,37ZM4,37.999C4,37.447 4.447,37 4.999,37C6.536,37 9.463,37 11,37C11.265,37 11.52,37.105 11.707,37.293C11.895,37.48 12,37.735 12,38C12,38 12,38.001 12,38.001C12,38.553 11.553,39 11.001,39C9.464,39 6.537,39 5,39C4.448,39 4,38.552 4,38C4,38 4,37.999 4,37.999ZM6.702,25.159C6.919,24.664 7.496,24.438 7.992,24.655C9.391,25.267 12.078,26.443 13.498,27.064C13.745,27.172 13.939,27.374 14.037,27.625C14.135,27.876 14.13,28.156 14.021,28.403C14.021,28.403 14.021,28.403 14.021,28.404C13.803,28.901 13.224,29.127 12.727,28.909C11.328,28.298 8.646,27.124 7.226,26.503C6.978,26.395 6.784,26.192 6.685,25.94C6.587,25.688 6.593,25.408 6.701,25.16C6.701,25.16 6.702,25.159 6.702,25.159ZM64.008,24.655C64.504,24.438 65.081,24.664 65.298,25.159C65.298,25.159 65.299,25.16 65.299,25.16C65.407,25.408 65.413,25.688 65.315,25.94C65.216,26.192 65.022,26.395 64.774,26.503C63.355,27.124 60.673,28.297 59.274,28.909C58.776,29.127 58.195,28.9 57.977,28.402C57.977,28.402 57.977,28.402 57.977,28.401C57.869,28.155 57.863,27.876 57.961,27.625C58.059,27.374 58.252,27.173 58.499,27.065C59.918,26.444 62.608,25.267 64.008,24.655ZM13.389,15.387C13.779,14.997 14.411,14.997 14.802,15.387C15.888,16.474 17.959,18.545 19.047,19.633C19.235,19.82 19.34,20.075 19.34,20.34C19.34,20.606 19.235,20.861 19.047,21.048C19.047,21.049 19.046,21.049 19.046,21.049C18.656,21.439 18.024,21.439 17.635,21.049C16.548,19.962 14.475,17.889 13.387,16.802C12.997,16.411 12.997,15.779 13.387,15.389C13.388,15.388 13.388,15.388 13.389,15.387ZM57.198,15.388C57.385,15.201 57.64,15.095 57.905,15.095C58.17,15.095 58.424,15.201 58.612,15.388C58.799,15.576 58.905,15.83 58.905,16.095C58.905,16.36 58.799,16.615 58.612,16.802C57.53,17.884 55.476,19.938 54.384,21.03C53.983,21.431 53.334,21.431 52.934,21.03C52.934,21.03 52.934,21.03 52.933,21.03C52.751,20.847 52.648,20.599 52.648,20.341C52.648,20.083 52.751,19.835 52.933,19.652C54.016,18.57 56.104,16.482 57.198,15.388ZM23.15,8.706C23.4,8.596 23.684,8.59 23.939,8.69C24.193,8.789 24.398,8.986 24.507,9.236C25.131,10.661 26.303,13.341 26.913,14.735C27.129,15.228 26.904,15.802 26.411,16.019C26.411,16.019 26.411,16.019 26.41,16.019C26.162,16.128 25.88,16.134 25.626,16.035C25.373,15.936 25.17,15.741 25.061,15.492C24.438,14.066 23.26,11.376 22.651,9.982C22.436,9.492 22.659,8.921 23.149,8.706C23.149,8.706 23.15,8.706 23.15,8.706ZM47.493,9.236C47.602,8.986 47.807,8.789 48.061,8.69C48.316,8.59 48.6,8.596 48.85,8.706C48.85,8.706 48.851,8.706 48.851,8.706C49.341,8.921 49.564,9.492 49.349,9.982C48.74,11.375 47.563,14.064 46.94,15.49C46.83,15.74 46.627,15.935 46.373,16.035C46.119,16.134 45.837,16.128 45.588,16.019C45.587,16.018 45.587,16.018 45.587,16.018C45.095,15.803 44.871,15.229 45.086,14.737C45.695,13.344 46.869,10.662 47.493,9.236ZM35,7C35,6.448 35.448,6 36,6C36.552,6 37,6.448 37,7C37,8.545 37,11.494 37,13.024C37,13.283 36.897,13.531 36.714,13.714C36.531,13.897 36.283,14 36.024,14C36.024,14 36.023,14 36.023,14C35.458,14 35,13.542 35,12.977C35,11.434 35,8.529 35,7Z" style="fill-opacity:0.2;"/></g><g id="Sun"><circle id="Sun1" cx="36" cy="36" r="22" style="fill:url(#_Linear2);"/><g id="Rays"><path d="M37,67.026C37,67.284 36.897,67.532 36.715,67.715C36.532,67.897 36.284,68 36.026,68C36.026,68 36.025,68 36.025,68C35.459,68 35,67.541 35,66.975C35,65.439 35,62.558 35,61.023C35,60.458 35.458,60 36.023,60C36.023,60 36.024,60 36.024,60C36.283,60 36.531,60.103 36.714,60.286C36.897,60.469 37,60.717 37,60.976C37,62.515 37,65.488 37,67.026ZM35,5C35,4.448 35.448,4 36,4C36.552,4 37,4.448 37,5C37,6.545 37,9.494 37,11.024C37,11.283 36.897,11.531 36.714,11.714C36.531,11.897 36.283,12 36.024,12C36.024,12 36.023,12 36.023,12C35.458,12 35,11.542 35,10.977C35,9.434 35,6.529 35,5Z" style="fill:url(#_Linear3);"/><path d="M23.149,65.294C22.659,65.079 22.436,64.508 22.651,64.018C23.26,62.625 24.437,59.936 25.06,58.511C25.169,58.262 25.373,58.066 25.626,57.967C25.879,57.868 26.162,57.874 26.411,57.983C26.411,57.983 26.411,57.983 26.412,57.983C26.904,58.199 27.128,58.773 26.913,59.266C26.303,60.659 25.131,63.339 24.507,64.764C24.398,65.014 24.193,65.211 23.939,65.31C23.684,65.41 23.4,65.404 23.15,65.294C23.15,65.294 23.149,65.294 23.149,65.294ZM47.493,7.236C47.602,6.986 47.807,6.789 48.061,6.69C48.316,6.59 48.6,6.596 48.85,6.706C48.85,6.706 48.851,6.706 48.851,6.706C49.341,6.921 49.564,7.492 49.349,7.982C48.74,9.375 47.563,12.064 46.94,13.49C46.83,13.74 46.627,13.935 46.373,14.035C46.119,14.134 45.837,14.128 45.588,14.019C45.587,14.018 45.587,14.018 45.587,14.018C45.095,13.803 44.871,13.229 45.086,12.737C45.695,11.344 46.869,8.662 47.493,7.236Z" style="fill:url(#_Linear4);"/><path d="M14.82,58.594C14.42,58.995 13.771,58.995 13.37,58.594C13.37,58.594 13.37,58.594 13.37,58.594C12.989,58.213 12.989,57.596 13.37,57.216C14.458,56.128 16.563,54.023 17.651,52.935C18.031,52.555 18.648,52.555 19.028,52.935C19.029,52.935 19.029,52.935 19.029,52.936C19.429,53.336 19.429,53.985 19.029,54.385C17.943,55.471 15.906,57.508 14.82,58.594ZM57.18,13.406C57.372,13.214 57.633,13.106 57.905,13.106C58.177,13.106 58.437,13.214 58.63,13.406C58.63,13.406 58.63,13.406 58.63,13.406C58.813,13.589 58.916,13.837 58.916,14.095C58.916,14.353 58.813,14.601 58.63,14.784C57.554,15.86 55.482,17.932 54.384,19.03C53.983,19.431 53.334,19.431 52.934,19.03C52.934,19.03 52.934,19.03 52.933,19.03C52.751,18.847 52.648,18.599 52.648,18.341C52.648,18.083 52.751,17.835 52.933,17.652C54.01,16.576 56.082,14.504 57.18,13.406Z" style="fill:url(#_Linear5);"/><path d="M6.701,48.84C6.593,48.592 6.587,48.312 6.685,48.06C6.784,47.808 6.978,47.605 7.226,47.497C8.644,46.877 11.323,45.705 12.723,45.092C13.222,44.874 13.803,45.101 14.022,45.6C14.022,45.601 14.022,45.601 14.022,45.601C14.13,45.847 14.136,46.126 14.038,46.376C13.94,46.626 13.747,46.827 13.501,46.935C12.083,47.555 9.392,48.733 7.992,49.345C7.496,49.562 6.919,49.336 6.702,48.841C6.702,48.841 6.701,48.84 6.701,48.84ZM64.008,22.655C64.504,22.438 65.081,22.664 65.298,23.159C65.298,23.159 65.299,23.16 65.299,23.16C65.407,23.408 65.413,23.688 65.315,23.94C65.216,24.192 65.022,24.395 64.774,24.503C63.355,25.124 60.673,26.297 59.274,26.909C58.776,27.127 58.195,26.9 57.977,26.402C57.977,26.402 57.977,26.402 57.977,26.401C57.869,26.155 57.863,25.876 57.961,25.625C58.059,25.374 58.252,25.173 58.499,25.065C59.918,24.444 62.608,23.267 64.008,22.655Z" style="fill:url(#_Linear6);"/><path d="M67,35C67.265,35 67.52,35.105 67.707,35.293C67.895,35.48 68,35.735 68,36C68,36.552 67.552,37 67,37C65.463,37 62.536,37 60.999,37C60.447,37 60,36.553 60,36.001C60,36.001 60,36 60,36C60,35.735 60.105,35.48 60.293,35.293C60.48,35.105 60.735,35 61,35C62.537,35 65.463,35 67,35ZM4,35.999C4,35.447 4.447,35 4.999,35C6.536,35 9.463,35 11,35C11.265,35 11.52,35.105 11.707,35.293C11.895,35.48 12,35.735 12,36C12,36 12,36.001 12,36.001C12,36.553 11.553,37 11.001,37C9.464,37 6.537,37 5,37C4.448,37 4,36.552 4,36C4,36 4,35.999 4,35.999Z" style="fill:url(#_Linear7);"/><path d="M64.774,47.497C65.022,47.605 65.216,47.808 65.315,48.06C65.413,48.312 65.407,48.592 65.299,48.84C65.299,48.84 65.298,48.841 65.298,48.841C65.081,49.336 64.504,49.562 64.008,49.345C62.608,48.732 59.917,47.555 58.498,46.934C58.252,46.827 58.059,46.626 57.961,46.376C57.863,46.125 57.869,45.847 57.977,45.601C57.977,45.6 57.977,45.6 57.977,45.6C58.196,45.101 58.777,44.874 59.276,45.092C60.676,45.704 63.355,46.876 64.774,47.497ZM6.702,23.159C6.919,22.664 7.496,22.438 7.992,22.655C9.391,23.267 12.078,24.443 13.498,25.064C13.745,25.172 13.939,25.374 14.037,25.625C14.135,25.876 14.13,26.156 14.021,26.403C14.021,26.403 14.021,26.403 14.021,26.404C13.803,26.901 13.224,27.127 12.727,26.909C11.328,26.298 8.646,25.124 7.226,24.503C6.978,24.395 6.784,24.192 6.685,23.94C6.587,23.688 6.593,23.408 6.701,23.16C6.701,23.16 6.702,23.159 6.702,23.159Z" style="fill:url(#_Linear8);"/><path d="M58.612,57.198C59.002,57.588 59.002,58.221 58.612,58.612C58.612,58.612 58.611,58.612 58.611,58.613C58.221,59.003 57.589,59.003 57.198,58.613C56.111,57.525 54.038,55.453 52.951,54.366C52.562,53.976 52.562,53.344 52.951,52.954C52.952,52.954 52.952,52.954 52.952,52.953C53.14,52.766 53.394,52.66 53.66,52.66C53.925,52.66 54.18,52.766 54.368,52.953C55.455,54.041 57.525,56.111 58.612,57.198ZM13.389,13.387C13.779,12.997 14.411,12.997 14.802,13.387C15.888,14.474 17.959,16.545 19.047,17.633C19.235,17.82 19.34,18.075 19.34,18.34C19.34,18.606 19.235,18.861 19.047,19.048C19.047,19.049 19.046,19.049 19.046,19.049C18.656,19.439 18.024,19.439 17.635,19.049C16.548,17.962 14.476,15.89 13.388,14.802C12.998,14.412 12.998,13.779 13.388,13.388C13.388,13.388 13.389,13.388 13.389,13.387Z" style="fill:url(#_Linear9);"/><path d="M49.349,64.018C49.564,64.508 49.341,65.079 48.851,65.294C48.851,65.294 48.85,65.294 48.85,65.294C48.6,65.404 48.316,65.41 48.061,65.31C47.807,65.211 47.602,65.014 47.493,64.764C46.869,63.338 45.695,60.656 45.086,59.263C44.871,58.772 45.095,58.199 45.586,57.984C45.587,57.984 45.587,57.983 45.587,57.983C45.837,57.874 46.12,57.868 46.374,57.967C46.627,58.066 46.831,58.262 46.941,58.512C47.564,59.938 48.74,62.625 49.349,64.018ZM23.15,6.706C23.4,6.596 23.684,6.59 23.939,6.69C24.193,6.789 24.398,6.986 24.507,7.236C25.131,8.661 26.303,11.341 26.913,12.735C27.129,13.228 26.904,13.802 26.411,14.019C26.411,14.019 26.411,14.019 26.41,14.019C26.162,14.128 25.88,14.134 25.626,14.035C25.373,13.936 25.17,13.741 25.061,13.492C24.438,12.066 23.26,9.376 22.651,7.982C22.436,7.492 22.659,6.921 23.149,6.706C23.149,6.706 23.15,6.706 23.15,6.706Z" style="fill:url(#_Linear10);"/></g></g><g id="Church"><clipPath id="_clip11"><circle cx="36" cy="36" r="22"/></clipPath><g clip-path="url(#_clip11)"><path id="Roof" d="M12,54L60,54L60,60L12,60L12,54Z" style="fill:#e64c00;"/><g id="Nave"><path id="Nave1" d="M29,41L36,32L43,41L43,60L29,60L29,41Z" style="fill:#e64c00;"/><g id="Roof1"><path id="Roof2" d="M29,41L36,20L43,41L39,40L36,34L33,40L29,41Z" style="fill:#72613e;"/><path id="Roof-Reflection" d="M36,20L32.5,39.25L30,40L36,20Z" style="fill:url(#_Linear12);"/></g><circle id="Clock" cx="36" cy="40" r="1.5" style="fill:#fff;"/><path id="Left-Window" d="M33,48C33,48 33,46 33,44.828C33,44.298 33.211,43.789 33.586,43.414C33.804,43.196 34,43 34,43C34,43 34.196,43.196 34.414,43.414C34.789,43.789 35,44.298 35,44.828C35,46 35,48 35,48L33,48Z" style="fill:#c40;"/><path id="Right-Window" d="M37,48C37,48 37,46 37,44.828C37,44.298 37.211,43.789 37.586,43.414C37.804,43.196 38,43 38,43C38,43 38.196,43.196 38.414,43.414C38.789,43.789 39,44.298 39,44.828C39,46 39,48 39,48L37,48Z" style="fill:#c40;"/></g><g id="Left-Tower"><rect id="Tower" x="27" y="39" width="4" height="21" style="fill:#f2590d;"/><path id="Top" d="M27,36L28,33L30,33L31,36L31,40C31,40 31,40 31,40C29.741,39.37 28.259,39.37 27,40C27,40 27,40 27,40L27,36Z" style="fill:#a68c59;"/><path id="Roof3" d="M27,36L29,30L31,36L30,34L29,36L28,34L27,36Z" style="fill:#72613e;"/></g><g id="Right-Tower"><rect id="Tower1" x="41" y="39" width="4" height="21" style="fill:#f2590d;"/><path id="Top1" d="M41,36L42,33L44,33L45,36L45,40C45,40 45,40 45,40C43.741,39.37 42.259,39.37 41,40C41,40 41,40 41,40L41,36Z" style="fill:#a68c59;"/><path id="Roof4" d="M41,36L43,30L45,36L44,34L43,36L42,34L41,36Z" style="fill:#72613e;"/></g><g id="Entrance"><path id="Gable" d="M27,60L36,48L45,60L27,60Z" style="fill:#f46a25;"/><circle id="Window" cx="36" cy="56" r="2" style="fill:#fff;fill-opacity:0.5;"/></g></g></g><defs><filter id="_Effect1" filterUnits="userSpaceOnUse" x="-8" y="-6" width="88" height="88"><feGaussianBlur in="SourceGraphic" stdDeviation="2"/></filter><linearGradient id="_Linear2" x1="0" y1="0" x2="1" y2="0" gradientUnits="userSpaceOnUse" gradientTransform="matrix(2.66779e-09,-64,64,2.66779e-09,36,68)"><stop offset="0" style="stop-color:#ffc000;stop-opacity:1"/><stop offset="1" style="stop-color:#ff9500;stop-opacity:1"/></linearGradient><linearGradient id="_Linear3" x1="0" y1="0" x2="1" y2="0" gradientUnits="userSpaceOnUse" gradientTransform="matrix(1.81297e-14,-64,64,1.81297e-14,36,68)"><stop offset="0" style="stop-color:#ffc000;stop-opacity:1"/><stop offset="1" style="stop-color:#ff9500;stop-opacity:1"/></linearGradient><linearGradient id="_Linear4" x1="0" y1="0" x2="1" y2="0" gradientUnits="userSpaceOnUse" gradientTransform="matrix(1.81297e-14,-64,64,1.81297e-14,36,68)"><stop offset="0" style="stop-color:#ffc000;stop-opacity:1"/><stop offset="1" style="stop-color:#ff9500;stop-opacity:1"/></linearGradient><linearGradient id="_Linear5" x1="0" y1="0" x2="1" y2="0" gradientUnits="userSpaceOnUse" gradientTransform="matrix(1.81297e-14,-64,64,1.81297e-14,36,68)"><stop offset="0" style="stop-color:#ffc000;stop-opacity:1"/><stop offset="1" style="stop-color:#ff9500;stop-opacity:1"/></linearGradient><linearGradient id="_Linear6" x1="0" y1="0" x2="1" y2="0" gradientUnits="userSpaceOnUse" gradientTransform="matrix(1.81297e-14,-64,64,1.81297e-14,36,68)"><stop offset="0" style="stop-color:#ffc000;stop-opacity:1"/><stop offset="1" style="stop-color:#ff9500;stop-opacity:1"/></linearGradient><linearGradient id="_Linear7" x1="0" y1="0" x2="1" y2="0" gradientUnits="userSpaceOnUse" gradientTransform="matrix(1.81297e-14,-64,64,1.81297e-14,36,68)"><stop offset="0" style="stop-color:#ffc000;stop-opacity:1"/><stop offset="1" style="stop-color:#ff9500;stop-opacity:1"/></linearGradient><linearGradient id="_Linear8" x1="0" y1="0" x2="1" y2="0" gradientUnits="userSpaceOnUse" gradientTransform="matrix(1.81297e-14,-64,64,1.81297e-14,36,68)"><stop offset="0" style="stop-color:#ffc000;stop-opacity:1"/><stop offset="1" style="stop-color:#ff9500;stop-opacity:1"/></linearGradient><linearGradient id="_Linear9" x1="0" y1="0" x2="1" y2="0" gradientUnits="userSpaceOnUse" gradientTransform="matrix(1.81297e-14,-64,64,1.81297e-14,36,68)"><stop offset="0" style="stop-color:#ffc000;stop-opacity:1"/><stop offset="1" style="stop-color:#ff9500;stop-opacity:1"/></linearGradient><linearGradient id="_Linear10" x1="0" y1="0" x2="1" y2="0" gradientUnits="userSpaceOnUse" gradientTransform="matrix(1.81297e-14,-64,64,1.81297e-14,36,68)"><stop offset="0" style="stop-color:#ffc000;stop-opacity:1"/><stop offset="1" style="stop-color:#ff9500;stop-opacity:1"/></linearGradient><linearGradient id="_Linear12" x1="0" y1="0" x2="1" y2="0" gradientUnits="userSpaceOnUse" gradientTransform="matrix(1.22465e-15,-20,20,1.22465e-15,33,40)"><stop offset="0" style="stop-color:#947c50;stop-opacity:1"/><stop offset="1" style="stop-color:#947d50;stop-opacity:0.2"/></linearGradient></defs></svg>