<svg width="64" height="64" xmlns="http://www.w3.org/2000/svg" fill-rule="evenodd" clip-rule="evenodd" stroke-linejoin="round" stroke-miterlimit="1.414"><circle cx="32" cy="32" r="24" fill="url(#a)" transform="matrix(.91667 0 0 .91667 2.667 2.667)"/><path d="M33 63.026a.978.978 0 0 1-.285.689.978.978 0 0 1-.689.285h-.001A1.025 1.025 0 0 1 31 62.975v-5.952c0-.565.458-1.023 1.023-1.023h.001a.976.976 0 0 1 .976.976v6.05zM31 1a1 1 0 0 1 2 0v6.024a.976.976 0 0 1-.976.976h-.001A1.023 1.023 0 0 1 31 6.977V1z" fill="url(#b)"/><path d="M19.149 61.294a.968.968 0 0 1-.498-1.276l2.409-5.507a1.027 1.027 0 0 1 1.351-.528h.001c.492.216.716.79.501 1.283l-2.406 5.498a1.028 1.028 0 0 1-1.357.53h-.001zM43.493 3.236a1.028 1.028 0 0 1 1.357-.53h.001c.49.215.713.786.498 1.276L42.94 9.49a1.027 1.027 0 0 1-1.352.529l-.001-.001a.973.973 0 0 1-.501-1.281l2.407-5.501z" fill="url(#c)"/><path d="M10.82 54.594c-.4.401-1.049.401-1.45 0a.974.974 0 0 1 0-1.378l4.281-4.281a.974.974 0 0 1 1.378.001c.4.4.4 1.049 0 1.449l-4.209 4.209zM53.198 9.388a1.002 1.002 0 0 1 1.707.707c0 .265-.106.52-.293.707l-4.228 4.228a1.024 1.024 0 0 1-1.45 0h-.001a.978.978 0 0 1 0-1.378l4.265-4.264z" fill="url(#d)"/><path d="M2.701 44.84a1.02 1.02 0 0 1 .525-1.343l5.497-2.405a.987.987 0 0 1 1.299.508v.001a1.01 1.01 0 0 1-.521 1.334l-5.509 2.41a.98.98 0 0 1-1.29-.504l-.001-.001zm57.307-26.185a.98.98 0 0 1 1.29.504l.001.001a1.02 1.02 0 0 1-.525 1.343l-5.5 2.406a.985.985 0 0 1-1.297-.507v-.001a1.013 1.013 0 0 1 .522-1.336l5.509-2.41z" fill="url(#e)"/><path d="M63 31a.997.997 0 0 1 1 1 1 1 0 0 1-1 1h-6.001a.999.999 0 0 1-.999-.999V32a.997.997 0 0 1 1-1h6zm-63 .999C0 31.447.447 31 .999 31H7a.997.997 0 0 1 1 1v.001a.999.999 0 0 1-.999.999H1a1 1 0 0 1-1-1v-.001z" fill="url(#f)"/><path d="M60.774 43.497a1.02 1.02 0 0 1 .525 1.343l-.001.001a.98.98 0 0 1-1.29.504l-5.51-2.411a1.01 1.01 0 0 1-.521-1.333V41.6a.987.987 0 0 1 1.299-.508l5.498 2.405zM2.702 19.159a.98.98 0 0 1 1.29-.504l5.506 2.409a1.016 1.016 0 0 1 .523 1.339v.001a.982.982 0 0 1-1.294.505l-5.501-2.406a1.02 1.02 0 0 1-.525-1.343l.001-.001z" fill="url(#g)"/><path d="M54.612 53.198a1 1 0 0 1-1.414 1.414l-4.247-4.246a1 1 0 0 1 0-1.412l.001-.001a1.004 1.004 0 0 1 1.416 0l4.244 4.245zM9.389 9.387a1 1 0 0 1 1.413 0l4.245 4.246a.997.997 0 0 1 0 1.415l-.001.001a.997.997 0 0 1-1.411 0l-4.248-4.247a1 1 0 0 1 0-1.413l.002-.002z" fill="url(#h)"/><path d="M45.349 60.018a.968.968 0 0 1-.498 1.276h-.001a1.028 1.028 0 0 1-1.357-.53l-2.407-5.501a.971.971 0 0 1 .5-1.279l.001-.001c.25-.109.533-.115.787-.016.253.099.457.296.567.545l2.408 5.506zM19.15 2.706a1.028 1.028 0 0 1 1.357.53l2.406 5.499a.975.975 0 0 1-.502 1.284h-.001a1.024 1.024 0 0 1-1.349-.527l-2.41-5.51a.968.968 0 0 1 .498-1.276h.001z" fill="url(#i)"/><g><clipPath id="j"><circle cx="32" cy="32" r="22"/></clipPath><g clip-path="url(#j)"><path d="M8 50h48v6H8v-6z" fill="#e64c00"/><path d="M25 37l7-9 7 9v19H25V37z" fill="#e64c00"/><path d="M25 37l7-21 7 21-4-1-3-6-3 6-4 1z" fill="#72613e"/><path d="M32 16l-3.5 19.25L26 36l6-20z" fill="url(#k)"/><circle cx="32.5" cy="36.5" r="1.5" fill="#fff" transform="translate(-.5 -.5)"/><path d="M29 44v-3.172a2 2 0 0 1 .586-1.414L30 39l.414.414A2 2 0 0 1 31 40.828V44h-2z" fill="#c40"/><g><path d="M33 44v-3.172a2 2 0 0 1 .586-1.414L34 39l.414.414A2 2 0 0 1 35 40.828V44h-2z" fill="#c40"/></g><g><path fill="#f2590d" d="M23 35h4v21h-4z"/><path d="M23 32l1-3h2l1 3v4a4.47 4.47 0 0 0-4 0v-4z" fill="#a68c59"/><path d="M23 32l2-6 2 6-1-2-1 2-1-2-1 2z" fill="#72613e"/></g><g><path fill="#f2590d" d="M37 35h4v21h-4z"/><path d="M37 32l1-3h2l1 3v4a4.47 4.47 0 0 0-4 0v-4z" fill="#a68c59"/><path d="M37 32l2-6 2 6-1-2-1 2-1-2-1 2z" fill="#72613e"/></g><g><path d="M23 56l9-12 9 12H23z" fill="#f46a25"/><circle cx="32" cy="48" r="1" fill="#fff" fill-opacity=".5" transform="matrix(2 0 0 2 -32 -44)"/></g></g></g><defs><linearGradient id="a" x2="1" gradientUnits="userSpaceOnUse" gradientTransform="matrix(0 -69.8182 69.8182 0 32 66.91)"><stop offset="0" stop-color="#ffc000"/><stop offset="1" stop-color="#ff9500"/></linearGradient><linearGradient id="b" x2="1" gradientUnits="userSpaceOnUse" gradientTransform="matrix(0 -64 64 0 32 64)"><stop offset="0" stop-color="#ffc000"/><stop offset="1" stop-color="#ff9500"/></linearGradient><linearGradient id="c" x2="1" gradientUnits="userSpaceOnUse" gradientTransform="matrix(0 -64 64 0 32 64)"><stop offset="0" stop-color="#ffc000"/><stop offset="1" stop-color="#ff9500"/></linearGradient><linearGradient id="d" x2="1" gradientUnits="userSpaceOnUse" gradientTransform="matrix(0 -64 64 0 32 64)"><stop offset="0" stop-color="#ffc000"/><stop offset="1" stop-color="#ff9500"/></linearGradient><linearGradient id="e" x2="1" gradientUnits="userSpaceOnUse" gradientTransform="matrix(0 -64 64 0 32 64)"><stop offset="0" stop-color="#ffc000"/><stop offset="1" stop-color="#ff9500"/></linearGradient><linearGradient id="f" x2="1" gradientUnits="userSpaceOnUse" gradientTransform="matrix(0 -64 64 0 32 64)"><stop offset="0" stop-color="#ffc000"/><stop offset="1" stop-color="#ff9500"/></linearGradient><linearGradient id="g" x2="1" gradientUnits="userSpaceOnUse" gradientTransform="matrix(0 -64 64 0 32 64)"><stop offset="0" stop-color="#ffc000"/><stop offset="1" stop-color="#ff9500"/></linearGradient><linearGradient id="h" x2="1" gradientUnits="userSpaceOnUse" gradientTransform="matrix(0 -64 64 0 32 64)"><stop offset="0" stop-color="#ffc000"/><stop offset="1" stop-color="#ff9500"/></linearGradient><linearGradient id="i" x2="1" gradientUnits="userSpaceOnUse" gradientTransform="matrix(0 -64 64 0 32 64)"><stop offset="0" stop-color="#ffc000"/><stop offset="1" stop-color="#ff9500"/></linearGradient><linearGradient id="k" x2="1" gradientUnits="userSpaceOnUse" gradientTransform="matrix(0 -20 20 0 29 36)"><stop offset="0" stop-color="#947c50"/><stop offset="1" stop-color="#947d50" stop-opacity=".2"/></linearGradient></defs></svg>