<?xml version="1.0" encoding="UTF-8" standalone="no"?><!DOCTYPE svg PUBLIC "-//W3C//DTD SVG 1.1//EN" "http://www.w3.org/Graphics/SVG/1.1/DTD/svg11.dtd"><svg width="230px" height="230px" version="1.1" xmlns="http://www.w3.org/2000/svg" xmlns:xlink="http://www.w3.org/1999/xlink" xml:space="preserve" style="fill-rule:evenodd;clip-rule:evenodd;stroke-linejoin:round;stroke-miterlimit:1.41421;"><g style="filter:url(#_Effect1);"><path id="Shadow" d="M169.421,195.929L60.579,212.196L60.579,160.275L19.14,166.468L19.14,104.134L35.805,101.643L35.805,49.773L194.195,26.102L194.195,77.972L210.86,75.481L210.86,137.816L169.421,144.009L169.421,195.929ZM137.871,162.172L137.871,160.655C137.871,156.543 137.055,153.649 135.423,151.971C133.791,150.294 131.129,149.732 127.437,150.283C124.701,150.692 122.549,151.561 120.984,152.891C119.418,154.22 118.313,155.953 117.67,158.088C117.027,160.223 116.706,162.874 116.706,166.043L116.706,179.743C116.706,184.36 117.514,187.72 119.129,189.821C120.745,191.922 123.365,192.701 126.992,192.159C130.486,191.637 132.86,189.546 134.113,185.888L134.657,190.508L138.168,189.983L138.168,169.711L128.03,171.226L128.03,175.27L133.124,174.509L133.124,177.34C133.124,180.609 132.736,183.043 131.962,184.642C131.187,186.241 129.761,187.195 127.684,187.506C125.574,187.821 124.148,187.352 123.407,186.097C122.665,184.843 122.294,182.649 122.294,179.515L122.294,164.348C122.294,162.326 122.401,160.692 122.615,159.447C122.83,158.201 123.316,157.16 124.074,156.322C124.832,155.484 125.986,154.949 127.536,154.717C128.986,154.501 130.082,154.606 130.824,155.035C131.566,155.463 132.052,156.191 132.283,157.218C132.514,158.245 132.629,159.736 132.629,161.691L132.629,162.955L137.871,162.172ZM113.541,193.664L104.986,153.993L99.596,154.798L91.091,197.019L96.332,196.236L98.261,185.634L106.42,184.415L108.25,194.455L113.541,193.664ZM83.327,198.179L83.327,161.476L90.398,160.419L90.398,156.173L70.47,159.151L70.47,163.398L77.739,162.311L77.739,199.014L83.327,198.179ZM159.432,150.102L159.432,145.856L143.904,148.176L143.904,189.126L159.53,186.791L159.53,182.696L149.492,184.196L149.492,169.181L157.552,167.976L157.552,163.932L149.492,165.137L149.492,151.588L159.432,150.102ZM105.679,180.431L99.003,181.428L102.316,162.48L105.679,180.431ZM57.563,147.203C55.717,145.203 54.794,141.98 54.794,137.531L54.794,122.313C54.794,117.865 55.717,114.382 57.563,111.864C59.409,109.347 62.491,107.766 66.81,107.12C71.162,106.47 74.269,107.135 76.132,109.115C77.994,111.094 78.926,114.292 78.926,118.707L78.926,133.924C78.926,138.373 77.994,141.874 76.132,144.427C74.269,146.981 71.162,148.583 66.81,149.233C62.491,149.878 59.409,149.202 57.563,147.203ZM32.022,151.323C30.159,149.529 29.162,146.383 29.03,141.887L36.596,139.593C36.629,142.183 36.934,144 37.511,145.043C38.088,146.086 38.953,146.521 40.107,146.348C41.59,146.127 42.332,145.022 42.332,143.033C42.332,141.449 41.978,140.137 41.269,139.097C40.56,138.057 39.447,136.993 37.931,135.905L34.469,133.339C32.689,132.021 31.346,130.646 30.439,129.214C29.533,127.782 29.079,125.87 29.079,123.477C29.079,120.039 30.077,117.245 32.071,115.093C34.066,112.941 36.81,111.604 40.305,111.082C44.096,110.515 46.675,111.259 48.044,113.312C49.412,115.366 50.145,118.003 50.244,121.224L42.629,123.323C42.563,121.209 42.373,119.704 42.06,118.807C41.747,117.91 41.063,117.557 40.008,117.749C39.25,117.862 38.664,118.278 38.252,118.997C37.84,119.716 37.634,120.48 37.634,121.289C37.634,122.738 37.956,123.878 38.599,124.709C39.241,125.539 40.206,126.448 41.491,127.436L44.805,129.924C46.783,131.448 48.316,133.073 49.404,134.797C50.491,136.522 51.035,138.682 51.035,141.277C51.035,143.198 50.599,145.008 49.725,146.706C48.851,148.403 47.623,149.826 46.041,150.972C44.458,152.119 42.629,152.847 40.552,153.157C36.728,153.729 33.884,153.117 32.022,151.323ZM200.97,128.576L195.481,109.579C197.36,108.388 198.646,106.932 199.338,105.211C200.031,103.489 200.377,101.264 200.377,98.534C200.377,94.489 199.256,91.843 197.014,90.594C194.772,89.345 191.459,89.048 187.075,89.703L176.047,91.351L176.047,132.301L184.899,130.978L184.899,112.626L187.421,112.249L191.822,129.943L200.97,128.576ZM94.354,103.56L84.86,104.979L84.167,146.032L90.547,145.079L91.14,117.539L96.085,144.251L101.673,143.416L106.321,115.472L107.063,142.611L113.343,141.672L112.651,100.826L103.503,102.193L98.755,126.714L94.354,103.56ZM148.157,136.469L147.464,95.623L138.316,96.99L133.569,121.511L129.168,98.357L119.673,99.776L118.981,140.829L125.36,139.876L125.953,112.336L130.898,139.048L136.486,138.213L141.135,110.269L141.877,137.408L148.157,136.469ZM172.041,132.899L172.041,126.782L162.794,128.164L162.794,115.93L169.767,114.888L169.767,108.619L162.794,109.661L162.794,99.499L171.943,98.132L171.943,91.964L153.942,94.655L153.942,135.604L172.041,132.899ZM69.283,141.154C69.678,140.235 69.876,139.034 69.876,137.552L69.876,117.835C69.876,116.318 69.678,115.168 69.283,114.385C68.887,113.601 68.063,113.303 66.81,113.49C65.623,113.668 64.832,114.216 64.437,115.134C64.041,116.053 63.843,117.254 63.843,118.737L63.843,138.453C63.843,139.936 64.024,141.08 64.387,141.885C64.75,142.691 65.557,143 66.81,142.812C68.063,142.625 68.887,142.072 69.283,141.154ZM187.767,95.666C189.382,95.425 190.52,95.718 191.179,96.546C191.838,97.375 192.168,98.716 192.168,100.569C192.168,102.491 191.814,103.984 191.105,105.051C190.396,106.117 189.152,106.784 187.371,107.05L184.899,107.419L184.899,96.095L187.767,95.666ZM143.409,44.157L138.069,44.955L138.069,72.103C138.069,75.204 138.365,77.738 138.959,79.705C139.552,81.672 140.632,83.112 142.198,84.024C143.764,84.936 145.948,85.182 148.75,84.763C151.552,84.345 153.728,83.446 155.278,82.069C156.827,80.691 157.899,78.93 158.492,76.786C159.085,74.641 159.382,72.019 159.382,68.918L159.382,41.77L154.091,42.56L154.091,69.961C154.091,73.062 153.736,75.474 153.028,77.198C152.319,78.922 150.893,79.944 148.75,80.264C146.607,80.584 145.181,79.988 144.473,78.477C143.764,76.965 143.409,74.658 143.409,71.558L143.409,44.157ZM167.022,78.848C165.258,76.988 164.278,74.219 164.08,70.541L169.025,68.437C169.19,71.041 169.693,73.09 170.533,74.582C171.374,76.074 172.767,76.675 174.712,76.384C176.162,76.167 177.259,75.59 178,74.654C178.742,73.717 179.113,72.474 179.113,70.923C179.113,69.272 178.767,67.95 178.074,66.958C177.382,65.966 176.278,64.876 174.761,63.687L168.036,58.626C166.684,57.581 165.704,56.404 165.094,55.097C164.484,53.789 164.179,52.141 164.179,50.153C164.179,47.119 165.036,44.657 166.75,42.766C168.465,40.876 170.822,39.706 173.822,39.258C176.954,38.79 179.294,39.299 180.844,40.787C182.393,42.274 183.333,44.796 183.662,48.353L178.915,50.377C178.75,48.076 178.322,46.312 177.629,45.084C176.937,43.856 175.717,43.373 173.97,43.634C170.772,44.112 169.173,45.851 169.173,48.85C169.173,50.063 169.371,51.037 169.767,51.77C170.162,52.502 170.838,53.252 171.794,54.02L178.569,59.074C180.316,60.464 181.709,62 182.748,63.682C183.786,65.363 184.305,67.367 184.305,69.692C184.305,72.692 183.415,75.201 181.635,77.22C179.855,79.238 177.547,80.46 174.712,80.883C171.349,81.386 168.786,80.707 167.022,78.848ZM96.926,51.104L91.585,51.902L91.585,79.05C91.585,82.151 91.882,84.685 92.475,86.652C93.069,88.619 94.148,90.059 95.714,90.971C97.28,91.883 99.464,92.129 102.266,91.71C105.069,91.292 107.244,90.393 108.794,89.016C110.343,87.639 111.415,85.877 112.008,83.733C112.602,81.588 112.898,78.966 112.898,75.865L112.898,48.717L107.607,49.507L107.607,76.908C107.607,80.009 107.253,82.421 106.544,84.145C105.835,85.869 104.409,86.891 102.266,87.211C100.124,87.531 98.698,86.935 97.989,85.424C97.28,83.912 96.926,81.605 96.926,78.505L96.926,51.104ZM55.634,57.275L45.695,58.76L45.695,99.71L51.283,98.875L51.283,79.816L55.684,79.158C58.882,78.68 61.321,77.389 63.002,75.284C64.684,73.179 65.524,70.458 65.524,67.121C65.524,63.414 64.742,60.717 63.176,59.029C61.61,57.342 59.096,56.758 55.634,57.275ZM87.876,93.406L79.321,53.735L73.931,54.54L65.426,96.761L70.667,95.978L72.596,85.376L80.755,84.157L82.585,94.197L87.876,93.406ZM124.371,83.857L124.371,47.002L118.783,47.837L118.783,88.787L134.607,86.422L134.607,82.327L124.371,83.857ZM80.014,80.173L73.338,81.171L76.651,62.223L80.014,80.173ZM53.904,61.628C55.783,61.348 57.159,61.344 58.033,61.618C58.906,61.892 59.491,62.495 59.788,63.428C60.085,64.362 60.233,65.873 60.233,67.962C60.233,69.681 60.035,71.025 59.64,71.994C59.244,72.964 58.593,73.701 57.687,74.207C56.78,74.714 55.503,75.09 53.854,75.336L51.283,75.721L51.283,62.02L53.904,61.628Z" style="fill-opacity:0.2;"/></g><path id="PaulusSommerTage" d="M169.421,189.929L60.579,206.196L60.579,154.275L19.14,160.468L19.14,98.134L35.805,95.643L35.805,43.773L194.195,20.102L194.195,71.972L210.86,69.481L210.86,131.816L169.421,138.009L169.421,189.929ZM137.871,156.172L137.871,154.655C137.871,150.543 137.055,147.649 135.423,145.971C133.791,144.294 131.129,143.732 127.437,144.283C124.701,144.692 122.549,145.561 120.984,146.891C119.418,148.22 118.313,149.953 117.67,152.088C117.027,154.223 116.706,156.874 116.706,160.043L116.706,173.743C116.706,178.36 117.514,181.72 119.129,183.821C120.745,185.922 123.365,186.701 126.992,186.159C130.486,185.637 132.86,183.546 134.113,179.888L134.657,184.508L138.168,183.983L138.168,163.711L128.03,165.226L128.03,169.27L133.124,168.509L133.124,171.34C133.124,174.609 132.736,177.043 131.962,178.642C131.187,180.241 129.761,181.195 127.684,181.506C125.574,181.821 124.148,181.352 123.407,180.097C122.665,178.843 122.294,176.649 122.294,173.515L122.294,158.348C122.294,156.326 122.401,154.692 122.615,153.447C122.83,152.201 123.316,151.16 124.074,150.322C124.832,149.484 125.986,148.949 127.536,148.717C128.986,148.501 130.082,148.606 130.824,149.035C131.566,149.463 132.052,150.191 132.283,151.218C132.514,152.245 132.629,153.736 132.629,155.691L132.629,156.955L137.871,156.172ZM113.541,187.664L104.986,147.993L99.596,148.798L91.091,191.019L96.332,190.236L98.261,179.634L106.42,178.415L108.25,188.455L113.541,187.664ZM83.327,192.179L83.327,155.476L90.398,154.419L90.398,150.173L70.47,153.151L70.47,157.398L77.739,156.311L77.739,193.014L83.327,192.179ZM159.432,144.102L159.432,139.856L143.904,142.176L143.904,183.126L159.53,180.791L159.53,176.696L149.492,178.196L149.492,163.181L157.552,161.976L157.552,157.932L149.492,159.137L149.492,145.588L159.432,144.102ZM105.679,174.431L99.003,175.428L102.316,156.48L105.679,174.431ZM57.563,141.203C55.717,139.203 54.794,135.98 54.794,131.531L54.794,116.313C54.794,111.865 55.717,108.382 57.563,105.864C59.409,103.347 62.491,101.766 66.81,101.12C71.162,100.47 74.269,101.135 76.132,103.115C77.994,105.094 78.926,108.292 78.926,112.707L78.926,127.924C78.926,132.373 77.994,135.874 76.132,138.427C74.269,140.981 71.162,142.583 66.81,143.233C62.491,143.878 59.409,143.202 57.563,141.203ZM32.022,145.323C30.159,143.529 29.162,140.383 29.03,135.887L36.596,133.593C36.629,136.183 36.934,138 37.511,139.043C38.088,140.086 38.953,140.521 40.107,140.348C41.59,140.127 42.332,139.022 42.332,137.033C42.332,135.449 41.978,134.137 41.269,133.097C40.56,132.057 39.447,130.993 37.931,129.905L34.469,127.339C32.689,126.021 31.346,124.646 30.439,123.214C29.533,121.782 29.079,119.87 29.079,117.477C29.079,114.039 30.077,111.245 32.071,109.093C34.066,106.941 36.81,105.604 40.305,105.082C44.096,104.515 46.675,105.259 48.044,107.312C49.412,109.366 50.145,112.003 50.244,115.224L42.629,117.323C42.563,115.209 42.373,113.704 42.06,112.807C41.747,111.91 41.063,111.557 40.008,111.749C39.25,111.862 38.664,112.278 38.252,112.997C37.84,113.716 37.634,114.48 37.634,115.289C37.634,116.738 37.956,117.878 38.599,118.709C39.241,119.539 40.206,120.448 41.491,121.436L44.805,123.924C46.783,125.448 48.316,127.073 49.404,128.797C50.491,130.522 51.035,132.682 51.035,135.277C51.035,137.198 50.599,139.008 49.725,140.706C48.851,142.403 47.623,143.826 46.041,144.972C44.458,146.119 42.629,146.847 40.552,147.157C36.728,147.729 33.884,147.117 32.022,145.323ZM200.97,122.576L195.481,103.579C197.36,102.388 198.646,100.932 199.338,99.211C200.031,97.489 200.377,95.264 200.377,92.534C200.377,88.489 199.256,85.843 197.014,84.594C194.772,83.345 191.459,83.048 187.075,83.703L176.047,85.351L176.047,126.301L184.899,124.978L184.899,106.626L187.421,106.249L191.822,123.943L200.97,122.576ZM94.354,97.56L84.86,98.979L84.167,140.032L90.547,139.079L91.14,111.539L96.085,138.251L101.673,137.416L106.321,109.472L107.063,136.611L113.343,135.672L112.651,94.826L103.503,96.193L98.755,120.714L94.354,97.56ZM148.157,130.469L147.464,89.623L138.316,90.99L133.569,115.511L129.168,92.357L119.673,93.776L118.981,134.829L125.36,133.876L125.953,106.336L130.898,133.048L136.486,132.213L141.135,104.269L141.877,131.408L148.157,130.469ZM172.041,126.899L172.041,120.782L162.794,122.164L162.794,109.93L169.767,108.888L169.767,102.619L162.794,103.661L162.794,93.499L171.943,92.132L171.943,85.964L153.942,88.655L153.942,129.604L172.041,126.899ZM69.283,135.154C69.678,134.235 69.876,133.034 69.876,131.552L69.876,111.835C69.876,110.318 69.678,109.168 69.283,108.385C68.887,107.601 68.063,107.303 66.81,107.49C65.623,107.668 64.832,108.216 64.437,109.134C64.041,110.053 63.843,111.254 63.843,112.737L63.843,132.453C63.843,133.936 64.024,135.08 64.387,135.885C64.75,136.691 65.557,137 66.81,136.812C68.063,136.625 68.887,136.072 69.283,135.154ZM187.767,89.666C189.382,89.425 190.52,89.718 191.179,90.546C191.838,91.375 192.168,92.716 192.168,94.569C192.168,96.491 191.814,97.984 191.105,99.051C190.396,100.117 189.152,100.784 187.371,101.05L184.899,101.419L184.899,90.095L187.767,89.666ZM143.409,38.157L138.069,38.955L138.069,66.103C138.069,69.204 138.365,71.738 138.959,73.705C139.552,75.672 140.632,77.112 142.198,78.024C143.764,78.936 145.948,79.182 148.75,78.763C151.552,78.345 153.728,77.446 155.278,76.069C156.827,74.691 157.899,72.93 158.492,70.786C159.085,68.641 159.382,66.019 159.382,62.918L159.382,35.77L154.091,36.56L154.091,63.961C154.091,67.062 153.736,69.474 153.028,71.198C152.319,72.922 150.893,73.944 148.75,74.264C146.607,74.584 145.181,73.988 144.473,72.477C143.764,70.965 143.409,68.658 143.409,65.558L143.409,38.157ZM167.022,72.848C165.258,70.988 164.278,68.219 164.08,64.541L169.025,62.437C169.19,65.041 169.693,67.09 170.533,68.582C171.374,70.074 172.767,70.675 174.712,70.384C176.162,70.167 177.259,69.59 178,68.654C178.742,67.717 179.113,66.474 179.113,64.923C179.113,63.272 178.767,61.95 178.074,60.958C177.382,59.966 176.278,58.876 174.761,57.687L168.036,52.626C166.684,51.581 165.704,50.404 165.094,49.097C164.484,47.789 164.179,46.141 164.179,44.153C164.179,41.119 165.036,38.657 166.75,36.766C168.465,34.876 170.822,33.706 173.822,33.258C176.954,32.79 179.294,33.299 180.844,34.787C182.393,36.274 183.333,38.796 183.662,42.353L178.915,44.377C178.75,42.076 178.322,40.312 177.629,39.084C176.937,37.856 175.717,37.373 173.97,37.634C170.772,38.112 169.173,39.851 169.173,42.85C169.173,44.063 169.371,45.037 169.767,45.77C170.162,46.502 170.838,47.252 171.794,48.02L178.569,53.074C180.316,54.464 181.709,56 182.748,57.682C183.786,59.363 184.305,61.367 184.305,63.692C184.305,66.692 183.415,69.201 181.635,71.22C179.855,73.238 177.547,74.46 174.712,74.883C171.349,75.386 168.786,74.707 167.022,72.848ZM96.926,45.104L91.585,45.902L91.585,73.05C91.585,76.151 91.882,78.685 92.475,80.652C93.069,82.619 94.148,84.059 95.714,84.971C97.28,85.883 99.464,86.129 102.266,85.71C105.069,85.292 107.244,84.393 108.794,83.016C110.343,81.639 111.415,79.877 112.008,77.733C112.602,75.588 112.898,72.966 112.898,69.865L112.898,42.717L107.607,43.507L107.607,70.908C107.607,74.009 107.253,76.421 106.544,78.145C105.835,79.869 104.409,80.891 102.266,81.211C100.124,81.531 98.698,80.935 97.989,79.424C97.28,77.912 96.926,75.605 96.926,72.505L96.926,45.104ZM55.634,51.275L45.695,52.76L45.695,93.71L51.283,92.875L51.283,73.816L55.684,73.158C58.882,72.68 61.321,71.389 63.002,69.284C64.684,67.179 65.524,64.458 65.524,61.121C65.524,57.414 64.742,54.717 63.176,53.029C61.61,51.342 59.096,50.758 55.634,51.275ZM87.876,87.406L79.321,47.735L73.931,48.54L65.426,90.761L70.667,89.978L72.596,79.376L80.755,78.157L82.585,88.197L87.876,87.406ZM124.371,77.857L124.371,41.002L118.783,41.837L118.783,82.787L134.607,80.422L134.607,76.327L124.371,77.857ZM80.014,74.173L73.338,75.171L76.651,56.223L80.014,74.173ZM53.904,55.628C55.783,55.348 57.159,55.344 58.033,55.618C58.906,55.892 59.491,56.495 59.788,57.428C60.085,58.362 60.233,59.873 60.233,61.962C60.233,63.681 60.035,65.025 59.64,65.994C59.244,66.964 58.593,67.701 57.687,68.207C56.78,68.714 55.503,69.09 53.854,69.336L51.283,69.721L51.283,56.02L53.904,55.628Z" style="fill:#fff;"/><defs><filter id="_Effect1" filterUnits="userSpaceOnUse" x="-40.5308" y="-41.1563" width="311.062" height="324.313"><feGaussianBlur in="SourceGraphic" stdDeviation="10"/></filter></defs></svg>